<svg width="24" height="24" viewBox="0 0 24 24" fill="none" xmlns="http://www.w3.org/2000/svg">
<path d="M18 10C18 8.4087 17.3679 6.88258 16.2426 5.75736C15.1174 4.63214 13.5913 4 12 4C10.4087 4 8.88258 4.63214 7.75736 5.75736C6.63214 6.88258 6 8.4087 6 10C6 17 3 19 3 19H21C21 19 18 17 18 10Z" stroke="#7D7F83" stroke-opacity="0.7" stroke-width="2" stroke-linecap="round" stroke-linejoin="round"/>
<path d="M13.7295 21C13.5537 21.3031 13.3014 21.5547 12.9978 21.7295C12.6941 21.9044 12.3499 21.9965 11.9995 21.9965C11.6492 21.9965 11.3049 21.9044 11.0013 21.7295C10.6977 21.5547 10.4453 21.3031 10.2695 21" stroke="#7D7F83" stroke-opacity="0.7" stroke-width="2" stroke-linecap="round" stroke-linejoin="round"/>
</svg>
